<?xml version="1.0" encoding="UTF-8"?>
<svg id="vlpa" version="1.1" viewBox="0 0 1233 308.5" xml:space="preserve" xmlns="http://www.w3.org/2000/svg" xmlns:cc="http://creativecommons.org/ns#" xmlns:dc="http://purl.org/dc/elements/1.1/" xmlns:rdf="http://www.w3.org/1999/02/22-rdf-syntax-ns#"><title>OpenVX logo</title><desc>An open standard for computer vision by Khronos Group</desc><metadata><rdf:RDF><cc:Work rdf:about=""><dc:format>image/svg+xml</dc:format><dc:type rdf:resource="http://purl.org/dc/dcmitype/StillImage"/><dc:title/></cc:Work></rdf:RDF></metadata>
<g transform="translate(-90.58 -103.5)" fill="#c70506">
	<polygon points="1291 340.7 1291 346.2 1283 346.2 1283 365.3 1277 365.3 1277 346.2 1270 346.2 1270 340.7"/>
	<polygon points="1315 365.3 1315 346.6 1315 346.6 1310 365.3 1305 365.3 1300 346.6 1300 346.6 1300 365.3 1294 365.3 1294 340.7 1303 340.7 1307 357.1 1307 357.1 1312 340.7 1321 340.7 1321 365.3"/>
</g>
<g transform="translate(-88.2 -103.5)" fill="#c70506">
	<path d="m294 338.8c-69.7-2.5-164.9-35.5-184.6-83-17.1-43.2-0.1-93.6 80.4-129.3 47.7-20.6 120-26.4 175.6-21.1 79 7.5 154.2 49.7 154.3 49.8v59.2l-0.1 4s-24.5-23-55.1-41.4c-28.8-17.4-55.2-29.7-107.6-34.7-12.2-1.2-33.1-4-66.9 0.9-13.7 2-32.9 3.5-76.2 23.1-14.1 6.9-27 14.3-37 22.9-5.2 4.5-12.3 10.8-17.4 16.2-12.4 16-18.9 28-15.8 49.8 3.6 16.4 10.7 26.7 31 42.4 8.8 6.8 9.8 6.8 13.7 8.8 36.4 19.5 65.5 26.6 107.1 32"/>
	<path d="m297.7 150.5c69.9-0.3 169 28.7 194.8 75.3 22.6 42.4 12.2 93.4-63.5 132.2-45 22.4-116.3 31.2-172.5 28.2-79.7-4.3-160.2-43.3-160.3-43.4l-7.6-59-0.4-4s27.4 21.9 60.3 39.1c31 16.2 58.9 27.4 111.8 30.2 12.4 0.7 33.6 2.6 66.6-3.6 13.4-2.5 32.4-4.8 73-26.2 13.2-7.5 25.1-15.4 33.9-24.4 4.7-4.7 10.9-11.3 15.2-16.8 10.3-16.5 15.3-28.7 9.3-50.3-5.7-16.2-14.1-26.2-36.3-41-9.7-6.4-10.7-6.3-14.8-8.3-38.8-17.9-68.7-23.9-110.9-27.6"/>
	<path d="m538.4 233.4v17.5h0.4c3.5-7.2 9-12.4 16.5-15.6s15.7-4.9 24.7-4.9c10 0 18.7 1.8 26.1 5.5s13.6 8.6 18.5 14.9c4.9 6.2 8.6 13.4 11.1 21.6s3.7 16.8 3.7 26-1.2 17.8-3.6 26-6.1 15.3-11 21.3c-4.9 6.1-11.1 10.9-18.5 14.4s-16 5.2-25.8 5.2c-3.2 0-6.7-0.3-10.6-1s-7.8-1.8-11.6-3.3-7.5-3.5-10.9-6.1-6.3-5.8-8.6-9.6h-0.4v66.7h-21.4v-178.6zm75.9 45.9c-1.6-5.7-4-10.9-7.2-15.4s-7.4-8.1-12.5-10.7c-5.1-2.7-11-4-17.8-4-7.1 0-13.2 1.4-18.2 4.2s-9.1 6.5-12.2 11.1c-3.2 4.6-5.4 9.8-6.9 15.6s-2.1 11.7-2.1 17.7c0 6.3 0.7 12.4 2.2 18.4 1.5 5.9 3.9 11.1 7.1 15.6s7.4 8.1 12.6 10.9 11.4 4.1 18.7 4.1 13.4-1.4 18.3-4.2 8.8-6.6 11.8-11.2 5.1-10 6.5-16c1.3-6 2-12.2 2-18.5 0.1-5.9-0.7-11.8-2.3-17.6"/>
	<path d="m748.6 354.3c-9.7 7.3-21.8 11-36.5 11-10.3 0-19.3-1.7-26.9-5s-14-8-19.2-14-9.1-13.2-11.6-21.5c-2.6-8.3-4-17.4-4.4-27.2 0-9.8 1.5-18.8 4.5-27s7.2-15.2 12.6-21.2 11.9-10.6 19.3-14c7.4-3.3 15.6-5 24.4-5 11.5 0 21.1 2.4 28.7 7.1 7.6 4.8 13.7 10.8 18.3 18.2 4.6 7.3 7.8 15.3 9.5 24 1.8 8.7 2.5 16.9 2.1 24.8h-96.8c-0.2 5.6 0.5 11 2 16.1s3.9 9.6 7.2 13.5 7.6 7 12.7 9.3c5.2 2.3 11.2 3.5 18.2 3.5 9 0 16.4-2.1 22.1-6.2 5.7-4.2 9.5-10.5 11.4-19h21c-2.7 14.4-8.9 25.3-18.6 32.6m-5.2-82.9c-1.9-4.5-4.5-8.3-7.7-11.6-3.2-3.2-7.1-5.8-11.5-7.7s-9.3-2.9-14.6-2.9c-5.5 0-10.4 1-14.8 2.9s-8.2 4.5-11.4 7.8-5.6 7.2-7.5 11.6c-1.8 4.4-2.9 9.1-3.2 14.1h74.1c-0.3-4.9-1.5-9.7-3.4-14.2"/>
	<path d="m803.8 235.5v20.5h0.4c8.9-15.7 22.9-23.5 42.2-23.5 8.5 0 15.7 1.2 21.4 3.5s10.3 5.6 13.8 9.7c3.5 4.2 6 9.1 7.4 14.9s2.1 12.1 2.1 19.1v85h-21.4v-87.5c0-8-2.3-14.3-7-19s-11.1-7-19.3-7c-6.5 0-12.2 1-16.9 3-4.8 2-8.7 4.8-11.9 8.5s-5.5 8-7.1 12.9-2.4 10.3-2.4 16.1v73h-21.4v-129.2z"/>
	
		<path d="m1003 365.4h-50.4l-66-203.3h46.1l45.3 142.9h0.6l45.8-142.9h46.1z"/>
		<path d="m1130 258.9-65.5-96.8h51.8l39.9 64.9 41.3-64.9h49l-65.2 97.1 70.9 106.2h-53.3l-44.4-70.3-45.3 70.3h-50.4z"/>
	
</g>
</svg>
